<?xml version="1.0" standalone="no"?>
<!DOCTYPE svg PUBLIC "-//W3C//DTD SVG 20010904//EN"
 "http://www.w3.org/TR/2001/REC-SVG-20010904/DTD/svg10.dtd">
<svg version="1.0" xmlns="http://www.w3.org/2000/svg"
 width="180.000000pt" height="180.000000pt" viewBox="0 0 180.000000 180.000000"
 preserveAspectRatio="xMidYMid meet">
<metadata>
Created by potrace 1.14, written by Peter Selinger 2001-2017
</metadata>
<g transform="translate(0.000000,180.000000) scale(0.100000,-0.100000)"
fill="#000000" stroke="none">
<path d="M210 901 l0 -701 478 0 c273 0 505 4 542 10 111 18 188 50 246 103
76 69 107 138 112 247 7 147 -33 235 -144 311 l-45 31 54 38 c96 69 137 154
137 285 0 175 -84 289 -258 347 -65 22 -81 22 -594 26 l-528 3 0 -700z m1055
464 c49 -24 64 -38 83 -75 43 -86 19 -196 -55 -244 -64 -42 -113 -47 -501 -44
l-363 3 0 193 c0 105 1 194 1 197 0 3 174 5 388 3 l387 -3 60 -30z m-37 -580
c98 -29 149 -104 140 -204 -7 -71 -38 -115 -106 -148 l-57 -28 -388 0 -388 0
0 193 c0 105 1 194 1 197 0 3 168 5 373 5 305 0 383 -3 425 -15z"/>
</g>
</svg>
